<!--?xml version="1.0" encoding="utf-8"?-->
<!-- Generator: Adobe Illustrator 18.1.1, SVG Export Plug-In . SVG Version: 6.00 Build 0)  -->

<svg version="1.1" id="_x31_0" xmlns="http://www.w3.org/2000/svg" xmlns:xlink="http://www.w3.org/1999/xlink" x="0px" y="0px" viewBox="0 0 512 512" style="width: 256px; height: 256px; opacity: 1;" xml:space="preserve">
<style type="text/css">
	.st0{fill:#374149;}
</style>
<g>
	<polygon class="st0" points="131.114,4.01 131.114,86.936 174.485,119.77 188.474,130.344 196.86,136.802 196.86,136.683 
		197.013,136.802 197.013,69.987 446.023,69.987 446.023,442.088 197.013,442.088 197.013,419.213 197.106,405.407 197.013,405.473 
		197.013,405.284 174.638,422.237 131.114,455.224 131.114,507.99 512,507.99 512,4.01 	" style="fill: rgb(75, 75, 75);"></polygon>
	<path class="st0" d="M131.114,320.981h10.615c3.818,0,7.479,1.529,10.231,4.202c2.673,2.748,4.198,6.339,4.198,10.231v62.461
		l40.854-30.999l99.481-75.47l26.958-20.395l-0.038-0.026l0.127-0.097l-126.528-95.757l-25.53-19.299l-15.324-11.7v0.112
		l-0.153-0.112l0.153,62.461c0,3.818-1.526,7.409-4.198,10.156c-2.752,2.752-6.338,4.198-10.231,4.198h-10.615H0.004V320.6
		L0,320.907h0.004v0.153L131.114,320.981z" style="fill: rgb(75, 75, 75);"></path>
</g>
</svg>
